G04 #@! TF.FileFunction,Soldermask,Top*
%FSLAX46Y46*%
G04 Gerber Fmt 4.6, Leading zero omitted, Abs format (unit mm)*
G04 Created by KiCad (PCBNEW 4.0.7) date 04/25/18 19:18:30*
%MOMM*%
%LPD*%
G01*
G04 APERTURE LIST*
%ADD10C,0.150000*%
%ADD11R,2.640000X1.370000*%
%ADD12C,17.900000*%
%ADD13R,5.180000X2.640000*%
%ADD14C,1.800000*%
%ADD15O,1.800000X1.800000*%
%ADD16O,0.700000X0.700000*%
%ADD17R,1.300000X2.600000*%
%ADD18C,1.000000*%
G04 APERTURE END LIST*
D10*
D11*
X114300000Y-121285000D03*
X114300000Y-118745000D03*
X114300000Y-116205000D03*
X114300000Y-113665000D03*
X114300000Y-111125000D03*
D12*
X114300000Y-93980000D03*
D13*
X114300000Y-82550000D03*
X114300000Y-105410000D03*
D14*
X185420000Y-87630000D03*
D15*
X185420000Y-90170000D03*
X185420000Y-92710000D03*
X185420000Y-95250000D03*
X185420000Y-97790000D03*
X185420000Y-100330000D03*
X185420000Y-102870000D03*
X185420000Y-105410000D03*
X185420000Y-107950000D03*
X185420000Y-110490000D03*
X185420000Y-113030000D03*
X185420000Y-115570000D03*
D16*
X185420000Y-87630000D03*
X185420000Y-90170000D03*
X185420000Y-92710000D03*
X185420000Y-95250000D03*
X185420000Y-97790000D03*
X185420000Y-100330000D03*
X185420000Y-102870000D03*
X185420000Y-105410000D03*
X185420000Y-107950000D03*
X185420000Y-110490000D03*
X185420000Y-113030000D03*
X185420000Y-115570000D03*
D14*
X170180000Y-87630000D03*
D15*
X170180000Y-90170000D03*
X170180000Y-92710000D03*
X170180000Y-95250000D03*
X170180000Y-97790000D03*
X170180000Y-100330000D03*
X170180000Y-102870000D03*
X170180000Y-105410000D03*
X170180000Y-107950000D03*
X170180000Y-110490000D03*
X170180000Y-113030000D03*
X170180000Y-115570000D03*
D16*
X170180000Y-87630000D03*
X170180000Y-90170000D03*
X170180000Y-92710000D03*
X170180000Y-95250000D03*
X170180000Y-97790000D03*
X170180000Y-100330000D03*
X170180000Y-102870000D03*
X170180000Y-105410000D03*
X170180000Y-107950000D03*
X170180000Y-110490000D03*
X170180000Y-113030000D03*
X170180000Y-115570000D03*
D17*
X125300000Y-80950000D03*
X122800000Y-80950000D03*
X127800000Y-80950000D03*
D18*
X121900000Y-78200000D03*
X128700000Y-78200000D03*
M02*
