M48
;DRILL file {KiCad 4.0.7} date 04/25/18 19:18:34
;FORMAT={-:-/ absolute / inch / decimal}
FMAT,2
INCH,TZ
T1C0.012
%
G90
G05
M72
T1
X4.75Y-4.3
X4.85Y-4.05
X4.875Y-4.55
X4.9Y-4.3
X5.1Y-3.35
X5.1Y-3.55
X5.1Y-3.75
X5.1Y-3.95
X5.1Y-4.15
X5.1Y-4.35
X5.1Y-4.55
X5.1Y-4.75
X5.3Y-3.35
X5.3Y-3.55
X5.3Y-3.75
X5.3Y-3.95
X5.3Y-4.15
X5.3Y-4.35
X5.3Y-4.55
X5.3Y-4.75
X5.5Y-3.35
X5.5Y-3.55
X5.5Y-3.75
X5.5Y-3.95
X5.5Y-4.15
X5.5Y-4.35
X5.5Y-4.55
X5.5Y-4.75
X5.7Y-3.35
X5.7Y-3.55
X5.7Y-3.75
X5.7Y-3.95
X5.7Y-4.15
X5.7Y-4.35
X5.7Y-4.55
X5.7Y-4.75
X5.9Y-3.35
X5.9Y-3.55
X5.9Y-3.75
X5.9Y-3.95
X5.9Y-4.15
X5.9Y-4.35
X5.9Y-4.55
X5.9Y-4.75
X6.1Y-3.35
X6.1Y-3.55
X6.1Y-3.75
X6.1Y-3.95
X6.1Y-4.15
X6.1Y-4.35
X6.1Y-4.55
X6.1Y-4.75
X6.3Y-3.35
X6.3Y-3.55
X6.3Y-3.75
X6.3Y-3.95
X6.3Y-4.15
X6.3Y-4.35
X6.3Y-4.55
X6.3Y-4.75
X6.5Y-3.35
X6.5Y-3.55
X6.5Y-3.75
X6.5Y-3.95
X6.5Y-4.15
X6.5Y-4.35
X6.5Y-4.55
X6.5Y-4.75
X6.7Y-3.45
X6.7Y-3.55
X6.7Y-3.65
X6.7Y-3.75
X6.7Y-3.85
X6.7Y-3.95
X6.7Y-4.05
X6.7Y-4.15
X6.7Y-4.25
X6.7Y-4.35
X6.7Y-4.45
X6.7Y-4.55
X6.85Y-3.325
X6.95Y-3.325
X7.05Y-3.325
X7.05Y-4.675
X7.15Y-3.325
X7.15Y-4.675
X7.3Y-3.45
X7.3Y-3.55
X7.3Y-3.65
X7.3Y-3.75
X7.3Y-3.85
X7.3Y-3.95
X7.3Y-4.05
X7.3Y-4.15
X7.3Y-4.25
X7.3Y-4.35
X7.3Y-4.45
X7.3Y-4.55
T0
M30
