G04 #@! TF.FileFunction,Soldermask,Bot*
%FSLAX46Y46*%
G04 Gerber Fmt 4.6, Leading zero omitted, Abs format (unit mm)*
G04 Created by KiCad (PCBNEW 4.0.7) date 04/25/18 19:18:30*
%MOMM*%
%LPD*%
G01*
G04 APERTURE LIST*
%ADD10C,0.150000*%
%ADD11R,1.000000X0.900000*%
%ADD12R,0.800000X1.400000*%
%ADD13R,1.500000X2.200000*%
%ADD14R,1.400000X0.800000*%
%ADD15O,0.700000X0.700000*%
%ADD16R,1.300000X1.300000*%
%ADD17C,1.000000*%
G04 APERTURE END LIST*
D10*
D11*
X106700000Y-92950000D03*
X106700000Y-95050000D03*
X104400000Y-92950000D03*
X104400000Y-95050000D03*
X119600000Y-92950000D03*
X119600000Y-95050000D03*
X109000000Y-92950000D03*
X109000000Y-95050000D03*
X173400000Y-109750000D03*
X173400000Y-111850000D03*
X167900000Y-93000000D03*
X167900000Y-95100000D03*
X183200000Y-92950000D03*
X183200000Y-95050000D03*
X172400000Y-92950000D03*
X172400000Y-95050000D03*
D12*
X176850000Y-86360000D03*
X178750000Y-86360000D03*
D13*
X119670000Y-106150000D03*
X119670000Y-97050000D03*
X124170000Y-106150000D03*
X124170000Y-97050000D03*
X112050000Y-112500000D03*
X112050000Y-103400000D03*
X116550000Y-112500000D03*
X116550000Y-103400000D03*
X104430000Y-106150000D03*
X104430000Y-97050000D03*
X108930000Y-106150000D03*
X108930000Y-97050000D03*
X112050000Y-99800000D03*
X112050000Y-90700000D03*
X116550000Y-99800000D03*
X116550000Y-90700000D03*
X167930000Y-106150000D03*
X167930000Y-97050000D03*
X172430000Y-106150000D03*
X172430000Y-97050000D03*
X183170000Y-106150000D03*
X183170000Y-97050000D03*
X187670000Y-106150000D03*
X187670000Y-97050000D03*
X175550000Y-99800000D03*
X175550000Y-90700000D03*
X180050000Y-99800000D03*
X180050000Y-90700000D03*
X175550000Y-112500000D03*
X175550000Y-103400000D03*
X180050000Y-112500000D03*
X180050000Y-103400000D03*
D14*
X181610000Y-121600000D03*
X181610000Y-119700000D03*
X179070000Y-121600000D03*
X179070000Y-119700000D03*
X176530000Y-121600000D03*
X176530000Y-119700000D03*
X173990000Y-121600000D03*
X173990000Y-119700000D03*
X181610000Y-81600000D03*
X181610000Y-83500000D03*
X179070000Y-81600000D03*
X179070000Y-83500000D03*
X176530000Y-81600000D03*
X176530000Y-83500000D03*
X173990000Y-81600000D03*
X173990000Y-83500000D03*
D15*
X185420000Y-87630000D03*
X185420000Y-90170000D03*
X185420000Y-92710000D03*
X185420000Y-95250000D03*
X185420000Y-97790000D03*
X185420000Y-100330000D03*
X185420000Y-102870000D03*
X185420000Y-105410000D03*
X185420000Y-107950000D03*
X185420000Y-110490000D03*
X185420000Y-113030000D03*
X185420000Y-115570000D03*
X170180000Y-87630000D03*
X170180000Y-90170000D03*
X170180000Y-92710000D03*
X170180000Y-95250000D03*
X170180000Y-97790000D03*
X170180000Y-100330000D03*
X170180000Y-102870000D03*
X170180000Y-105410000D03*
X170180000Y-107950000D03*
X170180000Y-110490000D03*
X170180000Y-113030000D03*
X170180000Y-115570000D03*
D16*
X164930000Y-83913546D03*
X162730000Y-83913546D03*
X164930000Y-88993546D03*
X162730000Y-88993546D03*
X164930000Y-94073546D03*
X162730000Y-94073546D03*
X164930000Y-99153546D03*
X162730000Y-99153546D03*
X164930000Y-104233546D03*
X162730000Y-104233546D03*
X164930000Y-109313546D03*
X162730000Y-109313546D03*
X164930000Y-114393546D03*
X162730000Y-114393546D03*
X164930000Y-119473546D03*
X162730000Y-119473546D03*
X159850000Y-83913546D03*
X157650000Y-83913546D03*
X159850000Y-88993546D03*
X157650000Y-88993546D03*
X159850000Y-94073546D03*
X157650000Y-94073546D03*
X159850000Y-99153546D03*
X157650000Y-99153546D03*
X159850000Y-104233546D03*
X157650000Y-104233546D03*
X159850000Y-109313546D03*
X157650000Y-109313546D03*
X159850000Y-114393546D03*
X157650000Y-114393546D03*
X159850000Y-119473546D03*
X157650000Y-119473546D03*
X154770000Y-83913546D03*
X152570000Y-83913546D03*
X154770000Y-88993546D03*
X152570000Y-88993546D03*
X154770000Y-94073546D03*
X152570000Y-94073546D03*
X154770000Y-99153546D03*
X152570000Y-99153546D03*
X154770000Y-104233546D03*
X152570000Y-104233546D03*
X154770000Y-109313546D03*
X152570000Y-109313546D03*
X154770000Y-114393546D03*
X152570000Y-114393546D03*
X154770000Y-119473546D03*
X152570000Y-119473546D03*
X149690000Y-83913546D03*
X147490000Y-83913546D03*
X149690000Y-88993546D03*
X147490000Y-88993546D03*
X149690000Y-94073546D03*
X147490000Y-94073546D03*
X149690000Y-99153546D03*
X147490000Y-99153546D03*
X149690000Y-104233546D03*
X147490000Y-104233546D03*
X149690000Y-109313546D03*
X147490000Y-109313546D03*
X149690000Y-114393546D03*
X147490000Y-114393546D03*
X149690000Y-119473546D03*
X147490000Y-119473546D03*
X144610000Y-83913546D03*
X142410000Y-83913546D03*
X144610000Y-88993546D03*
X142410000Y-88993546D03*
X144610000Y-94073546D03*
X142410000Y-94073546D03*
X144610000Y-99153546D03*
X142410000Y-99153546D03*
X144610000Y-104233546D03*
X142410000Y-104233546D03*
X144610000Y-109313546D03*
X142410000Y-109313546D03*
X144610000Y-114393546D03*
X142410000Y-114393546D03*
X144610000Y-119473546D03*
X142410000Y-119473546D03*
X139530000Y-83913546D03*
X137330000Y-83913546D03*
X139530000Y-88993546D03*
X137330000Y-88993546D03*
X139530000Y-94073546D03*
X137330000Y-94073546D03*
X139530000Y-99153546D03*
X137330000Y-99153546D03*
X139530000Y-104233546D03*
X137330000Y-104233546D03*
X139530000Y-109313546D03*
X137330000Y-109313546D03*
X139530000Y-114393546D03*
X137330000Y-114393546D03*
X139530000Y-119473546D03*
X137330000Y-119473546D03*
X134450000Y-83913546D03*
X132250000Y-83913546D03*
X134450000Y-88993546D03*
X132250000Y-88993546D03*
X134450000Y-94073546D03*
X132250000Y-94073546D03*
X134450000Y-99153546D03*
X132250000Y-99153546D03*
X134450000Y-104233546D03*
X132250000Y-104233546D03*
X134450000Y-109313546D03*
X132250000Y-109313546D03*
X134450000Y-114393546D03*
X132250000Y-114393546D03*
X134450000Y-119473546D03*
X132250000Y-119473546D03*
X129370000Y-83913546D03*
X127170000Y-83913546D03*
X129370000Y-88993546D03*
X127170000Y-88993546D03*
X129370000Y-94073546D03*
X127170000Y-94073546D03*
X129370000Y-99153546D03*
X127170000Y-99153546D03*
X129370000Y-104233546D03*
X127170000Y-104233546D03*
X129370000Y-109313546D03*
X127170000Y-109313546D03*
X129370000Y-114393546D03*
X127170000Y-114393546D03*
X129370000Y-119473546D03*
X127170000Y-119473546D03*
D17*
X121900000Y-78200000D03*
X128700000Y-78200000D03*
M02*
