G04 #@! TF.FileFunction,Legend,Bot*
%FSLAX46Y46*%
G04 Gerber Fmt 4.6, Leading zero omitted, Abs format (unit mm)*
G04 Created by KiCad (PCBNEW 4.0.7) date 04/25/18 19:18:30*
%MOMM*%
%LPD*%
G01*
G04 APERTURE LIST*
%ADD10C,0.150000*%
%ADD11C,0.250000*%
%ADD12C,0.300000*%
%ADD13C,0.400000*%
%ADD14C,0.600000*%
%ADD15C,0.100000*%
G04 APERTURE END LIST*
D10*
D11*
X124642858Y-78452381D02*
X124738096Y-78404762D01*
X124785715Y-78357143D01*
X124833334Y-78261905D01*
X124833334Y-77976190D01*
X124785715Y-77880952D01*
X124738096Y-77833333D01*
X124642858Y-77785714D01*
X124500000Y-77785714D01*
X124404762Y-77833333D01*
X124357143Y-77880952D01*
X124309524Y-77976190D01*
X124309524Y-78261905D01*
X124357143Y-78357143D01*
X124404762Y-78404762D01*
X124500000Y-78452381D01*
X124642858Y-78452381D01*
X124023810Y-77785714D02*
X123642858Y-77785714D01*
X123880953Y-78452381D02*
X123880953Y-77595238D01*
X123833334Y-77500000D01*
X123738096Y-77452381D01*
X123642858Y-77452381D01*
X123452381Y-77785714D02*
X123071429Y-77785714D01*
X123309524Y-78452381D02*
X123309524Y-77595238D01*
X123261905Y-77500000D01*
X123166667Y-77452381D01*
X123071429Y-77452381D01*
X127223810Y-78452381D02*
X127319048Y-78404762D01*
X127366667Y-78357143D01*
X127414286Y-78261905D01*
X127414286Y-77976190D01*
X127366667Y-77880952D01*
X127319048Y-77833333D01*
X127223810Y-77785714D01*
X127080952Y-77785714D01*
X126985714Y-77833333D01*
X126938095Y-77880952D01*
X126890476Y-77976190D01*
X126890476Y-78261905D01*
X126938095Y-78357143D01*
X126985714Y-78404762D01*
X127080952Y-78452381D01*
X127223810Y-78452381D01*
X126461905Y-77785714D02*
X126461905Y-78452381D01*
X126461905Y-77880952D02*
X126414286Y-77833333D01*
X126319048Y-77785714D01*
X126176190Y-77785714D01*
X126080952Y-77833333D01*
X126033333Y-77928571D01*
X126033333Y-78452381D01*
D12*
X153714286Y-124878571D02*
X154428572Y-124878571D01*
X154428572Y-123378571D01*
X153214286Y-124092857D02*
X152714286Y-124092857D01*
X152500000Y-124878571D02*
X153214286Y-124878571D01*
X153214286Y-123378571D01*
X152500000Y-123378571D01*
X151857143Y-124878571D02*
X151857143Y-123378571D01*
X151500000Y-123378571D01*
X151285715Y-123450000D01*
X151142857Y-123592857D01*
X151071429Y-123735714D01*
X151000000Y-124021429D01*
X151000000Y-124235714D01*
X151071429Y-124521429D01*
X151142857Y-124664286D01*
X151285715Y-124807143D01*
X151500000Y-124878571D01*
X151857143Y-124878571D01*
X148928572Y-123378571D02*
X148642858Y-123378571D01*
X148500000Y-123450000D01*
X148357143Y-123592857D01*
X148285715Y-123878571D01*
X148285715Y-124378571D01*
X148357143Y-124664286D01*
X148500000Y-124807143D01*
X148642858Y-124878571D01*
X148928572Y-124878571D01*
X149071429Y-124807143D01*
X149214286Y-124664286D01*
X149285715Y-124378571D01*
X149285715Y-123878571D01*
X149214286Y-123592857D01*
X149071429Y-123450000D01*
X148928572Y-123378571D01*
X147642857Y-124878571D02*
X147642857Y-123878571D01*
X147642857Y-124164286D02*
X147571429Y-124021429D01*
X147500000Y-123950000D01*
X147357143Y-123878571D01*
X147214286Y-123878571D01*
X146714286Y-124878571D02*
X146714286Y-123878571D01*
X146714286Y-123378571D02*
X146785715Y-123450000D01*
X146714286Y-123521429D01*
X146642858Y-123450000D01*
X146714286Y-123378571D01*
X146714286Y-123521429D01*
X145428572Y-124807143D02*
X145571429Y-124878571D01*
X145857143Y-124878571D01*
X146000000Y-124807143D01*
X146071429Y-124664286D01*
X146071429Y-124092857D01*
X146000000Y-123950000D01*
X145857143Y-123878571D01*
X145571429Y-123878571D01*
X145428572Y-123950000D01*
X145357143Y-124092857D01*
X145357143Y-124235714D01*
X146071429Y-124378571D01*
X144714286Y-123878571D02*
X144714286Y-124878571D01*
X144714286Y-124021429D02*
X144642858Y-123950000D01*
X144500000Y-123878571D01*
X144285715Y-123878571D01*
X144142858Y-123950000D01*
X144071429Y-124092857D01*
X144071429Y-124878571D01*
X143571429Y-123878571D02*
X143000000Y-123878571D01*
X143357143Y-123378571D02*
X143357143Y-124664286D01*
X143285715Y-124807143D01*
X143142857Y-124878571D01*
X143000000Y-124878571D01*
X141857143Y-124878571D02*
X141857143Y-124092857D01*
X141928572Y-123950000D01*
X142071429Y-123878571D01*
X142357143Y-123878571D01*
X142500000Y-123950000D01*
X141857143Y-124807143D02*
X142000000Y-124878571D01*
X142357143Y-124878571D01*
X142500000Y-124807143D01*
X142571429Y-124664286D01*
X142571429Y-124521429D01*
X142500000Y-124378571D01*
X142357143Y-124307143D01*
X142000000Y-124307143D01*
X141857143Y-124235714D01*
X141357143Y-123878571D02*
X140785714Y-123878571D01*
X141142857Y-123378571D02*
X141142857Y-124664286D01*
X141071429Y-124807143D01*
X140928571Y-124878571D01*
X140785714Y-124878571D01*
X140285714Y-124878571D02*
X140285714Y-123878571D01*
X140285714Y-123378571D02*
X140357143Y-123450000D01*
X140285714Y-123521429D01*
X140214286Y-123450000D01*
X140285714Y-123378571D01*
X140285714Y-123521429D01*
X139357142Y-124878571D02*
X139500000Y-124807143D01*
X139571428Y-124735714D01*
X139642857Y-124592857D01*
X139642857Y-124164286D01*
X139571428Y-124021429D01*
X139500000Y-123950000D01*
X139357142Y-123878571D01*
X139142857Y-123878571D01*
X139000000Y-123950000D01*
X138928571Y-124021429D01*
X138857142Y-124164286D01*
X138857142Y-124592857D01*
X138928571Y-124735714D01*
X139000000Y-124807143D01*
X139142857Y-124878571D01*
X139357142Y-124878571D01*
X138214285Y-123878571D02*
X138214285Y-124878571D01*
X138214285Y-124021429D02*
X138142857Y-123950000D01*
X137999999Y-123878571D01*
X137785714Y-123878571D01*
X137642857Y-123950000D01*
X137571428Y-124092857D01*
X137571428Y-124878571D01*
D13*
X174900000Y-101600000D02*
X175500000Y-102000000D01*
X174900000Y-101600000D02*
X175500000Y-101200000D01*
X175500000Y-101200000D02*
X175500000Y-102000000D01*
X180700000Y-101600000D02*
X180100000Y-101200000D01*
X180700000Y-101600000D02*
X180100000Y-102000000D01*
X180100000Y-102000000D02*
X180100000Y-101200000D01*
X177800000Y-104400000D02*
X178200000Y-103800000D01*
X177800000Y-104400000D02*
X177400000Y-103800000D01*
X177400000Y-103800000D02*
X178200000Y-103800000D01*
X178200000Y-99400000D02*
X177400000Y-99400000D01*
X177800000Y-98800000D02*
X178200000Y-99400000D01*
X177800000Y-98800000D02*
X177400000Y-99400000D01*
X177800000Y-98800000D02*
X177800000Y-104400000D01*
X180700000Y-101600000D02*
X174900000Y-101600000D01*
X156619049Y-78904762D02*
X155476192Y-78904762D01*
X156047620Y-80904762D02*
X156047620Y-78904762D01*
X154809525Y-80904762D02*
X154809525Y-79571429D01*
X154809525Y-78904762D02*
X154904763Y-79000000D01*
X154809525Y-79095238D01*
X154714286Y-79000000D01*
X154809525Y-78904762D01*
X154809525Y-79095238D01*
X153857144Y-79571429D02*
X153857144Y-80904762D01*
X153857144Y-79761905D02*
X153761905Y-79666667D01*
X153571429Y-79571429D01*
X153285715Y-79571429D01*
X153095239Y-79666667D01*
X153000001Y-79857143D01*
X153000001Y-80904762D01*
X152238096Y-79571429D02*
X151761905Y-80904762D01*
X151285715Y-79571429D02*
X151761905Y-80904762D01*
X151952381Y-81380952D01*
X152047620Y-81476190D01*
X152238096Y-81571429D01*
X149857143Y-79857143D02*
X150523810Y-79857143D01*
X150523810Y-80904762D02*
X150523810Y-78904762D01*
X149571429Y-78904762D01*
X148809524Y-80904762D02*
X148809524Y-78904762D01*
X148047619Y-78904762D01*
X147857143Y-79000000D01*
X147761904Y-79095238D01*
X147666666Y-79285714D01*
X147666666Y-79571429D01*
X147761904Y-79761905D01*
X147857143Y-79857143D01*
X148047619Y-79952381D01*
X148809524Y-79952381D01*
X145761904Y-79000000D02*
X145952381Y-78904762D01*
X146238095Y-78904762D01*
X146523809Y-79000000D01*
X146714285Y-79190476D01*
X146809524Y-79380952D01*
X146904762Y-79761905D01*
X146904762Y-80047619D01*
X146809524Y-80428571D01*
X146714285Y-80619048D01*
X146523809Y-80809524D01*
X146238095Y-80904762D01*
X146047619Y-80904762D01*
X145761904Y-80809524D01*
X145666666Y-80714286D01*
X145666666Y-80047619D01*
X146047619Y-80047619D01*
X144904762Y-80333333D02*
X143952381Y-80333333D01*
X145095238Y-80904762D02*
X144428571Y-78904762D01*
X143761904Y-80904762D01*
X140428570Y-80714286D02*
X140523808Y-80809524D01*
X140809523Y-80904762D01*
X140999999Y-80904762D01*
X141285713Y-80809524D01*
X141476189Y-80619048D01*
X141571428Y-80428571D01*
X141666666Y-80047619D01*
X141666666Y-79761905D01*
X141571428Y-79380952D01*
X141476189Y-79190476D01*
X141285713Y-79000000D01*
X140999999Y-78904762D01*
X140809523Y-78904762D01*
X140523808Y-79000000D01*
X140428570Y-79095238D01*
X138714285Y-80904762D02*
X138714285Y-79857143D01*
X138809523Y-79666667D01*
X138999999Y-79571429D01*
X139380951Y-79571429D01*
X139571428Y-79666667D01*
X138714285Y-80809524D02*
X138904761Y-80904762D01*
X139380951Y-80904762D01*
X139571428Y-80809524D01*
X139666666Y-80619048D01*
X139666666Y-80428571D01*
X139571428Y-80238095D01*
X139380951Y-80142857D01*
X138904761Y-80142857D01*
X138714285Y-80047619D01*
X137761904Y-80904762D02*
X137761904Y-79571429D01*
X137761904Y-79952381D02*
X137666665Y-79761905D01*
X137571427Y-79666667D01*
X137380951Y-79571429D01*
X137190475Y-79571429D01*
X135666666Y-80904762D02*
X135666666Y-78904762D01*
X135666666Y-80809524D02*
X135857142Y-80904762D01*
X136238094Y-80904762D01*
X136428570Y-80809524D01*
X136523809Y-80714286D01*
X136619047Y-80523810D01*
X136619047Y-79952381D01*
X136523809Y-79761905D01*
X136428570Y-79666667D01*
X136238094Y-79571429D01*
X135857142Y-79571429D01*
X135666666Y-79666667D01*
X146200000Y-122800000D02*
X145000000Y-122200000D01*
X146200000Y-121600000D02*
X146200000Y-122800000D01*
X145000000Y-122200000D02*
X146200000Y-121600000D01*
X145000000Y-121600000D02*
X145000000Y-122800000D01*
D14*
X107632380Y-110521667D02*
X105727618Y-110521667D01*
X108013333Y-111664524D02*
X106679999Y-107664524D01*
X105346666Y-111664524D01*
X121919999Y-93884762D02*
X121919999Y-95789524D01*
X123253333Y-91789524D02*
X121919999Y-93884762D01*
X120586666Y-91789524D01*
X114014286Y-115919286D02*
X113442857Y-116109762D01*
X113252381Y-116300238D01*
X113061905Y-116681190D01*
X113061905Y-117252619D01*
X113252381Y-117633571D01*
X113442857Y-117824048D01*
X113823810Y-118014524D01*
X115347619Y-118014524D01*
X115347619Y-114014524D01*
X114014286Y-114014524D01*
X113633333Y-114205000D01*
X113442857Y-114395476D01*
X113252381Y-114776429D01*
X113252381Y-115157381D01*
X113442857Y-115538333D01*
X113633333Y-115728810D01*
X114014286Y-115919286D01*
X115347619Y-115919286D01*
X115633333Y-84804524D02*
X112966667Y-88804524D01*
X112966667Y-84804524D02*
X115633333Y-88804524D01*
D15*
X106300000Y-93700000D02*
X107100000Y-93700000D01*
X107100000Y-94300000D02*
X106300000Y-94300000D01*
X106700000Y-93700000D02*
X107100000Y-94300000D01*
X106300000Y-94300000D02*
X106700000Y-93700000D01*
X104000000Y-93700000D02*
X104800000Y-93700000D01*
X104800000Y-94300000D02*
X104000000Y-94300000D01*
X104400000Y-93700000D02*
X104800000Y-94300000D01*
X104000000Y-94300000D02*
X104400000Y-93700000D01*
X119200000Y-93700000D02*
X120000000Y-93700000D01*
X120000000Y-94300000D02*
X119200000Y-94300000D01*
X119600000Y-93700000D02*
X120000000Y-94300000D01*
X119200000Y-94300000D02*
X119600000Y-93700000D01*
X108600000Y-93700000D02*
X109400000Y-93700000D01*
X109400000Y-94300000D02*
X108600000Y-94300000D01*
X109000000Y-93700000D02*
X109400000Y-94300000D01*
X108600000Y-94300000D02*
X109000000Y-93700000D01*
X173000000Y-110500000D02*
X173800000Y-110500000D01*
X173800000Y-111100000D02*
X173000000Y-111100000D01*
X173400000Y-110500000D02*
X173800000Y-111100000D01*
X173000000Y-111100000D02*
X173400000Y-110500000D01*
X167500000Y-93750000D02*
X168300000Y-93750000D01*
X168300000Y-94350000D02*
X167500000Y-94350000D01*
X167900000Y-93750000D02*
X168300000Y-94350000D01*
X167500000Y-94350000D02*
X167900000Y-93750000D01*
X182800000Y-93700000D02*
X183600000Y-93700000D01*
X183600000Y-94300000D02*
X182800000Y-94300000D01*
X183200000Y-93700000D02*
X183600000Y-94300000D01*
X182800000Y-94300000D02*
X183200000Y-93700000D01*
X172000000Y-93700000D02*
X172800000Y-93700000D01*
X172800000Y-94300000D02*
X172000000Y-94300000D01*
X172400000Y-93700000D02*
X172800000Y-94300000D01*
X172000000Y-94300000D02*
X172400000Y-93700000D01*
M02*
